<mxfile host="app.diagrams.net" agent="Mozilla/5.0 (Macintosh; Intel Mac OS X 10_15_7) AppleWebKit/605.1.15 (KHTML, like Gecko) Version/17.6 Safari/605.1.15" version="24.7.8">
  <diagram name="Página-1" id="x-xtmwinT8fp_WlECa-b">
    <mxGraphModel dx="1207" dy="752" grid="1" gridSize="10" guides="1" tooltips="1" connect="1" arrows="1" fold="1" page="1" pageScale="1" pageWidth="827" pageHeight="1169" math="0" shadow="0">
      <root>
        <mxCell id="0" />
        <mxCell id="1" parent="0" />
        <mxCell id="ZZNQdKXLJAglCdBGmz7A-1" value="CACHE L1" style="rounded=0;whiteSpace=wrap;html=1;fillColor=#d5e8d4;strokeColor=#82b366;" vertex="1" parent="1">
          <mxGeometry x="280" y="190" width="120" height="60" as="geometry" />
        </mxCell>
        <mxCell id="ZZNQdKXLJAglCdBGmz7A-2" value="REG." style="rounded=0;whiteSpace=wrap;html=1;fillColor=#f8cecc;strokeColor=#b85450;" vertex="1" parent="1">
          <mxGeometry x="70" y="190" width="120" height="60" as="geometry" />
        </mxCell>
        <mxCell id="ZZNQdKXLJAglCdBGmz7A-3" value="CACHE L2" style="rounded=0;whiteSpace=wrap;html=1;fillColor=#dae8fc;strokeColor=#6c8ebf;" vertex="1" parent="1">
          <mxGeometry x="490" y="190" width="120" height="60" as="geometry" />
        </mxCell>
        <mxCell id="ZZNQdKXLJAglCdBGmz7A-4" value="RAM" style="rounded=0;whiteSpace=wrap;html=1;fillColor=#e1d5e7;strokeColor=#9673a6;" vertex="1" parent="1">
          <mxGeometry x="707" y="190" width="120" height="60" as="geometry" />
        </mxCell>
        <mxCell id="ZZNQdKXLJAglCdBGmz7A-7" value="" style="endArrow=classic;html=1;rounded=0;" edge="1" parent="1">
          <mxGeometry width="50" height="50" relative="1" as="geometry">
            <mxPoint x="190" y="219.5" as="sourcePoint" />
            <mxPoint x="280" y="219.5" as="targetPoint" />
          </mxGeometry>
        </mxCell>
        <mxCell id="ZZNQdKXLJAglCdBGmz7A-8" value="" style="endArrow=classic;html=1;rounded=0;" edge="1" parent="1">
          <mxGeometry width="50" height="50" relative="1" as="geometry">
            <mxPoint x="400" y="219.5" as="sourcePoint" />
            <mxPoint x="490" y="219.5" as="targetPoint" />
          </mxGeometry>
        </mxCell>
        <mxCell id="ZZNQdKXLJAglCdBGmz7A-9" value="" style="endArrow=classic;html=1;rounded=0;" edge="1" parent="1">
          <mxGeometry width="50" height="50" relative="1" as="geometry">
            <mxPoint x="617" y="219.5" as="sourcePoint" />
            <mxPoint x="707" y="219.5" as="targetPoint" />
          </mxGeometry>
        </mxCell>
        <mxCell id="ZZNQdKXLJAglCdBGmz7A-14" value="&lt;span style=&quot;text-align: start;&quot;&gt;&lt;font style=&quot;font-size: 12px;&quot;&gt;Tempo de Acesso=200 ns, Razão de Acesso=0.05&lt;/font&gt;&lt;/span&gt;" style="rounded=1;whiteSpace=wrap;html=1;" vertex="1" parent="1">
          <mxGeometry x="590" y="280" width="150" height="40" as="geometry" />
        </mxCell>
        <mxCell id="ZZNQdKXLJAglCdBGmz7A-15" value="&lt;span style=&quot;text-align: start;&quot;&gt;&lt;font style=&quot;font-size: 12px;&quot;&gt;Tempo de Acesso=40 ns, Razão de Acesso=0.25&lt;/font&gt;&lt;/span&gt;" style="rounded=1;whiteSpace=wrap;html=1;" vertex="1" parent="1">
          <mxGeometry x="380" y="280" width="140" height="40" as="geometry" />
        </mxCell>
        <mxCell id="ZZNQdKXLJAglCdBGmz7A-16" value="&lt;span style=&quot;text-align: start;&quot;&gt;&lt;font style=&quot;font-size: 12px;&quot;&gt;Tempo de Acesso=15 ns, Razão de Acesso=1&lt;/font&gt;&lt;/span&gt;" style="rounded=1;whiteSpace=wrap;html=1;" vertex="1" parent="1">
          <mxGeometry x="160" y="280" width="140" height="40" as="geometry" />
        </mxCell>
        <mxCell id="ZZNQdKXLJAglCdBGmz7A-17" value="Cache L1 com um tempo de acesso de 15 nanosegundos;&lt;div&gt;Cache L2 com um tempo de acesso de 40 nanosegundos;&lt;br&gt;&lt;/div&gt;&lt;div&gt;Memória Principal (RAM) com um tempo de acesso de 200 nanosegundos;&lt;br&gt;&lt;/div&gt;&lt;div&gt;&lt;br&gt;&lt;/div&gt;" style="rounded=1;whiteSpace=wrap;html=1;" vertex="1" parent="1">
          <mxGeometry x="250" y="20" width="360" height="140" as="geometry" />
        </mxCell>
        <mxCell id="ZZNQdKXLJAglCdBGmz7A-19" value="Tempo Médio de Acesso: TA_CACHE_L1 x RA_CACHE_L1 = 15ns x 1 = 15ns&amp;nbsp;&lt;div&gt;Tempo Médio de Acesso: TA_CACHE_L1 x RA_CACHE_L1 + TA_CACHE_L2 x RA_CACHE_L2 = 15ns x 1 + 40ns x 0.25 = 15ns + 10ns = 25ns&amp;nbsp;&lt;/div&gt;&lt;div&gt;Tempo Médio de Acesso: TA _CACHE_L1X RA_CACHE_L1 + TA_CACHE_L2 x RA_CACHE_L2 + TA_RAM X RA_RAM= 15ns x 1 + 40ns x 0.25 + 200ns x 0.05&amp;nbsp;&lt;/div&gt;&lt;div&gt;&lt;b&gt;&lt;i&gt;Tempo Médio de Acesso: &amp;nbsp;15ns + 10ns + 10 ns = 35ns&lt;/i&gt;&lt;/b&gt;&lt;/div&gt;" style="rounded=1;whiteSpace=wrap;html=1;" vertex="1" parent="1">
          <mxGeometry y="400" width="870" height="70" as="geometry" />
        </mxCell>
        <mxCell id="ZZNQdKXLJAglCdBGmz7A-20" value="&lt;b style=&quot;font-size: 20px;&quot;&gt;&lt;font style=&quot;font-size: 20px;&quot;&gt;Hudson Machado&lt;/font&gt;&lt;/b&gt;&lt;div style=&quot;font-size: 20px;&quot;&gt;&lt;b&gt;&lt;font style=&quot;font-size: 20px;&quot;&gt;RU: 2783235&lt;/font&gt;&lt;/b&gt;&lt;/div&gt;" style="text;html=1;align=center;verticalAlign=middle;whiteSpace=wrap;rounded=0;" vertex="1" parent="1">
          <mxGeometry x="40" y="55" width="170" height="70" as="geometry" />
        </mxCell>
      </root>
    </mxGraphModel>
  </diagram>
</mxfile>
